<?xml version="1.0" encoding="UTF-8"?>
<!DOCTYPE svg PUBLIC "-//W3C//DTD SVG 1.1//EN" "http://www.w3.org/Graphics/SVG/1.1/DTD/svg11.dtd">
<svg version="1.1" xmlns="http://www.w3.org/2000/svg" xmlns:xlink="http://www.w3.org/1999/xlink" x="0" y="0" width="249.617" height="485.507" viewBox="0, 0, 249.617, 485.507">
  <defs>
    <clipPath id="Clip_1">
      <path d="M593.383,775.493 L845,775.493 L845,1265 L593.383,1265 z M691.627,783.493 C688.972,790.283 685.091,793.479 681.006,795.075 C674.079,798.009 667.348,797.626 660.667,797.244 C655.525,796.95 650.415,796.655 645.266,797.871 C644.651,797.871 644.04,793.877 644.244,791.48 C643.832,791.48 643.425,791.081 643.221,791.48 C640.974,798.269 637.301,803.463 633.212,799.868 L633.212,798.67 C632.261,798.403 631.286,798.492 630.31,798.581 C628.357,798.758 626.406,798.935 624.636,796.273 C624.025,795.075 623.003,796.673 622.185,797.471 C621.163,798.67 619.734,798.269 618.508,797.471 C617.486,796.722 616.546,796.754 615.583,796.785 C615.007,796.803 614.424,796.822 613.813,796.673 C613.198,796.273 612.587,795.075 612.18,795.075 C608.91,793.877 605.644,793.877 602.374,795.075 C602.19,795.147 602.006,795.213 601.822,795.271 C601.912,797.465 602.026,799.662 602.17,801.865 C602.374,805.06 602.374,808.254 602.17,811.05 C601.352,816.642 602.578,821.035 602.989,825.429 C604.215,838.609 602.171,852.188 604.007,864.169 C606.051,877.749 601.56,891.726 599.719,903.709 C598.697,911.297 600.334,920.882 600.334,929.269 C600.741,973.601 599.923,1018.333 599.515,1062.665 C599.516,1066.26 600.538,1070.254 601.56,1074.248 C602.989,1080.238 602.578,1088.226 601.763,1095.016 C599.312,1118.184 600.741,1140.943 600.741,1164.114 C604.215,1172.096 602.171,1181.684 602.785,1190.869 L603.396,1190.869 C604.007,1194.46 605.233,1198.06 605.644,1201.255 C606.458,1208.842 606.051,1217.631 605.44,1225.217 C604.9,1231.67 604.641,1238.13 604.536,1244.591 C606.838,1248.304 608.965,1252.337 610.766,1256.804 C612.877,1256.728 614.984,1256.56 617.078,1256.37 C617.49,1256.37 617.897,1253.973 618.508,1253.973 C621.981,1253.578 625.044,1250.382 628.11,1249.575 C638.73,1246.782 649.35,1250.777 659.97,1251.576 C662.214,1241.593 668.546,1246.387 672.63,1247.186 C673.652,1247.186 675.489,1247.186 676.918,1247.581 C677.126,1247.581 677.126,1246.387 677.329,1246.387 C679.166,1245.983 679.37,1250.382 680.595,1251.181 C681.339,1251.538 682.123,1251.493 682.91,1251.439 C683.857,1251.379 684.809,1251.318 685.702,1251.972 C688.764,1253.973 692.034,1253.973 694.893,1251.181 C696.526,1249.179 698.977,1251.972 701.021,1252.375 C712.456,1254.772 723.69,1253.973 735.125,1253.578 C735.329,1253.578 735.536,1254.772 735.74,1254.772 C736.351,1254.369 736.966,1255.967 737.78,1256.37 C741.254,1257.565 744.931,1255.967 747.993,1254.369 C752.034,1251.888 756.334,1252.725 760.712,1253.555 C764.08,1254.202 767.494,1254.841 770.866,1253.973 C775.769,1252.771 780.875,1252.771 785.982,1253.174 C788.022,1253.578 789.044,1258.767 791.292,1256.37 C792.517,1255.168 794.15,1253.174 793.947,1249.575 C798.849,1249.978 803.952,1249.575 808.447,1252.375 C809.47,1253.174 811.103,1253.973 812.328,1253.174 C813.55,1252.771 814.368,1250.382 815.39,1249.978 C818.86,1248.784 822.13,1248.38 825.4,1249.978 C826.755,1250.777 828.109,1252.451 829.527,1253.486 C829.735,1250.602 830.036,1248.084 830.972,1247.049 C832.613,1245.641 834.25,1243.777 835.734,1241.608 C835.765,1240.801 835.793,1239.995 835.812,1239.196 C836.02,1233.207 836.223,1226.016 835.812,1219.625 C835.405,1216.832 835.609,1212.038 835.812,1208.439 C836.02,1204.847 836.223,1202.054 835.609,1198.059 C835.201,1194.46 837.445,1191.668 837.856,1188.076 C838.467,1183.678 837.242,1178.488 838.467,1174.896 C839.082,1172.5 839.082,1169.304 838.878,1166.503 C838.675,1164.114 838.06,1161.717 837.653,1159.32 C836.834,1154.526 838.06,1149.732 838.263,1144.938 C838.467,1142.542 838.264,1140.548 837.856,1137.352 C836.631,1124.172 836.223,1110.991 837.653,1097.811 C838.467,1089.424 839.489,1081.836 838.675,1073.05 C837.856,1065.062 838.878,1057.074 837.242,1049.086 C835.812,1042.297 837.856,1034.309 837.242,1026.72 C836.834,1021.129 837.653,1015.937 837.445,1010.346 C837.856,1010.745 838.675,1010.346 838.263,1008.747 C837.242,1005.153 837.653,999.563 837.445,996.766 C837.242,991.574 837.856,985.983 837.445,980.391 C837.242,979.593 836.631,979.192 836.631,978.395 C836.427,966.014 835.609,954.031 836.223,941.65 C836.223,941.251 836.834,940.852 837.038,940.452 C837.242,938.456 836.427,937.257 835.609,934.862 C834.998,933.263 835.405,930.467 835.405,928.07 C836.631,928.471 837.445,926.074 837.242,924.078 C836.834,921.283 834.586,922.08 833.365,920.084 C833.157,919.284 833.365,917.687 833.772,916.888 C833.909,916.755 834.066,916.755 834.242,916.755 C834.586,916.755 834.998,916.755 835.405,915.69 C834.179,916.888 834.383,913.693 833.365,912.896 C833.976,911.697 833.568,909.699 834.586,908.102 C834.998,907.304 834.586,904.907 834.586,903.309 C833.976,895.721 836.02,888.532 835.201,880.944 C834.794,877.749 834.794,874.952 834.794,871.758 C834.794,869.761 834.179,868.163 833.976,866.566 C833.568,862.971 833.365,858.577 833.976,855.782 C834.794,852.188 833.772,848.194 833.568,844.999 C832.394,830.448 834.594,816.633 834.238,802.494 C833.643,802.261 833.075,801.931 832.546,801.465 C831.003,800.223 829.179,800.243 827.318,800.261 C825,800.287 822.631,800.311 820.701,797.871 C820.524,798.556 820.274,798.139 820,797.724 C819.628,797.17 819.212,796.615 818.86,798.67 C818.453,800.268 817.638,803.463 816.412,803.463 C814.368,803.862 811.51,805.859 810.284,801.865 C809.877,802.663 809.673,803.463 809.058,803.862 C807.316,804.807 805.62,804.141 803.928,803.473 C802.049,802.732 800.169,801.991 798.235,803.463 C793.743,807.456 787.818,806.657 782.305,805.459 C781.897,805.459 781.69,804.26 781.282,804.26 C779.575,803.97 777.813,804.102 776.066,804.235 C773.008,804.466 769.997,804.697 767.396,802.663 C765.76,801.465 763.719,799.868 762.697,801.066 C759.635,805.06 757.795,813.846 754.121,815.044 C753.914,815.044 753.71,816.242 753.507,816.242 C746.767,816.642 740.028,817.042 733.899,809.453 C732.881,808.254 731.656,807.856 730.837,807.456 C729.588,807.025 728.311,807.059 727.046,807.094 C724.799,807.156 722.586,807.217 720.624,804.661 C718.991,802.264 718.177,797.471 716.133,797.072 C713.07,797.072 710.004,798.269 706.738,797.471 C706.331,797.471 706.124,796.273 705.716,795.874 C704.491,794.676 703.061,794.276 701.836,793.078 C699.999,791.081 698.366,794.276 696.322,795.474 C692.238,797.471 692.441,788.285 691.627,783.493 z"/>
    </clipPath>
    <filter id="Shadow_2">
      <feGaussianBlur in="SourceAlpha" stdDeviation="2.5"/>
      <feOffset dx="0" dy="2" result="offsetblur"/>
      <feFlood flood-color="#000000"/>
      <feComposite in2="offsetblur" operator="in"/>
    </filter>
  </defs>
  <g id="message-boxes" transform="translate(-594.383, -778.493)">
    <g>
      <path d="M691.627,783.493 C692.441,788.285 692.238,797.471 696.322,795.474 C698.366,794.276 699.999,791.081 701.836,793.078 C703.061,794.276 704.491,794.676 705.716,795.874 C706.124,796.273 706.331,797.471 706.738,797.471 C710.004,798.269 713.07,797.072 716.133,797.072 C718.177,797.471 718.991,802.264 720.624,804.661 C722.586,807.217 724.799,807.156 727.046,807.094 C728.311,807.059 729.588,807.025 730.837,807.456 C731.656,807.856 732.881,808.254 733.899,809.453 C740.028,817.042 746.767,816.642 753.507,816.242 C753.71,816.242 753.914,815.044 754.121,815.044 C757.795,813.846 759.635,805.06 762.697,801.066 C763.719,799.868 765.76,801.465 767.396,802.663 C769.997,804.697 773.008,804.466 776.066,804.235 C777.813,804.102 779.575,803.97 781.282,804.26 C781.69,804.26 781.897,805.459 782.305,805.459 C787.818,806.657 793.743,807.456 798.235,803.463 C800.169,801.991 802.049,802.732 803.928,803.473 C805.62,804.141 807.316,804.807 809.058,803.862 C809.673,803.463 809.877,802.663 810.284,801.865 C811.51,805.859 814.368,803.862 816.412,803.463 C817.638,803.463 818.453,800.268 818.86,798.67 C819.212,796.615 819.628,797.17 820,797.724 C820.274,798.139 820.524,798.556 820.701,797.871 C822.631,800.311 825,800.287 827.318,800.261 C829.179,800.243 831.003,800.223 832.546,801.465 C833.075,801.931 833.643,802.261 834.238,802.494 C834.594,816.633 832.394,830.448 833.568,844.999 C833.772,848.194 834.794,852.188 833.976,855.782 C833.365,858.577 833.568,862.971 833.976,866.566 C834.179,868.163 834.794,869.761 834.794,871.758 C834.794,874.952 834.794,877.749 835.201,880.944 C836.02,888.532 833.976,895.721 834.586,903.309 C834.586,904.907 834.998,907.304 834.586,908.102 C833.568,909.699 833.976,911.697 833.365,912.896 C834.383,913.693 834.179,916.888 835.405,915.69 C834.998,916.755 834.586,916.755 834.242,916.755 C834.066,916.755 833.909,916.755 833.772,916.888 C833.365,917.687 833.157,919.284 833.365,920.084 C834.586,922.08 836.834,921.283 837.242,924.078 C837.445,926.074 836.631,928.471 835.405,928.07 C835.405,930.467 834.998,933.263 835.609,934.862 C836.427,937.257 837.242,938.456 837.038,940.452 C836.834,940.852 836.223,941.251 836.223,941.65 C835.609,954.031 836.427,966.014 836.631,978.395 C836.631,979.192 837.242,979.593 837.445,980.391 C837.856,985.983 837.242,991.574 837.445,996.766 C837.653,999.563 837.242,1005.153 838.263,1008.747 C838.675,1010.346 837.856,1010.745 837.445,1010.346 C837.653,1015.937 836.834,1021.129 837.242,1026.72 C837.856,1034.309 835.812,1042.297 837.242,1049.086 C838.878,1057.074 837.856,1065.062 838.675,1073.05 C839.489,1081.836 838.467,1089.424 837.653,1097.811 C836.223,1110.991 836.631,1124.172 837.856,1137.352 C838.264,1140.548 838.467,1142.542 838.263,1144.938 C838.06,1149.732 836.834,1154.526 837.653,1159.32 C838.06,1161.717 838.675,1164.114 838.878,1166.503 C839.082,1169.304 839.082,1172.5 838.467,1174.896 C837.242,1178.488 838.467,1183.678 837.856,1188.076 C837.445,1191.668 835.201,1194.46 835.609,1198.059 C836.223,1202.054 836.02,1204.847 835.812,1208.439 C835.609,1212.038 835.405,1216.832 835.812,1219.625 C836.223,1226.016 836.02,1233.207 835.812,1239.196 C835.793,1239.995 835.765,1240.801 835.734,1241.608 C834.25,1243.777 832.613,1245.641 830.972,1247.049 C830.036,1248.084 829.735,1250.602 829.527,1253.486 C828.109,1252.451 826.755,1250.777 825.4,1249.978 C822.13,1248.38 818.86,1248.784 815.39,1249.978 C814.368,1250.382 813.55,1252.771 812.328,1253.174 C811.103,1253.973 809.47,1253.174 808.447,1252.375 C803.952,1249.575 798.849,1249.978 793.947,1249.575 C794.15,1253.174 792.517,1255.168 791.292,1256.37 C789.044,1258.767 788.022,1253.578 785.982,1253.174 C780.875,1252.771 775.769,1252.771 770.866,1253.973 C767.494,1254.841 764.08,1254.202 760.712,1253.555 C756.334,1252.725 752.034,1251.888 747.993,1254.369 C744.931,1255.967 741.254,1257.565 737.78,1256.37 C736.966,1255.967 736.351,1254.369 735.74,1254.772 C735.536,1254.772 735.329,1253.578 735.125,1253.578 C723.69,1253.973 712.456,1254.772 701.021,1252.375 C698.977,1251.972 696.526,1249.179 694.893,1251.181 C692.034,1253.973 688.764,1253.973 685.702,1251.972 C684.809,1251.318 683.857,1251.379 682.91,1251.439 C682.123,1251.493 681.339,1251.538 680.595,1251.181 C679.37,1250.382 679.166,1245.983 677.329,1246.387 C677.126,1246.387 677.126,1247.581 676.918,1247.581 C675.489,1247.186 673.652,1247.186 672.63,1247.186 C668.546,1246.387 662.214,1241.593 659.97,1251.576 C649.35,1250.777 638.73,1246.782 628.11,1249.575 C625.044,1250.382 621.981,1253.578 618.508,1253.973 C617.897,1253.973 617.49,1256.37 617.078,1256.37 C614.984,1256.56 612.877,1256.728 610.766,1256.804 C608.965,1252.337 606.838,1248.304 604.536,1244.591 C604.641,1238.13 604.9,1231.67 605.44,1225.217 C606.051,1217.631 606.458,1208.842 605.644,1201.255 C605.233,1198.06 604.007,1194.46 603.396,1190.869 L602.785,1190.869 C602.171,1181.684 604.215,1172.096 600.741,1164.114 C600.741,1140.943 599.312,1118.184 601.763,1095.016 C602.578,1088.226 602.989,1080.238 601.56,1074.248 C600.538,1070.254 599.516,1066.26 599.515,1062.665 C599.923,1018.333 600.741,973.601 600.334,929.269 C600.334,920.882 598.697,911.297 599.719,903.709 C601.56,891.726 606.051,877.749 604.007,864.169 C602.171,852.188 604.215,838.609 602.989,825.429 C602.578,821.035 601.352,816.642 602.17,811.05 C602.374,808.254 602.374,805.06 602.17,801.865 C602.026,799.662 601.912,797.465 601.822,795.271 C602.006,795.213 602.19,795.147 602.374,795.075 C605.644,793.877 608.91,793.877 612.18,795.075 C612.587,795.075 613.198,796.273 613.813,796.673 C614.424,796.822 615.007,796.803 615.583,796.785 C616.546,796.754 617.486,796.722 618.508,797.471 C619.734,798.269 621.163,798.67 622.185,797.471 C623.003,796.673 624.025,795.075 624.636,796.273 C626.406,798.935 628.357,798.758 630.31,798.581 C631.286,798.492 632.261,798.403 633.212,798.67 L633.212,799.868 C637.301,803.463 640.974,798.269 643.221,791.48 C643.425,791.081 643.832,791.48 644.244,791.48 C644.04,793.877 644.651,797.871 645.266,797.871 C650.415,796.655 655.525,796.95 660.667,797.244 C667.348,797.626 674.079,798.009 681.006,795.075 C685.091,793.479 688.972,790.283 691.627,783.493 z" clip-path="url(#Clip_1)" filter="url(#Shadow_2)" fill="rgba(0,0,0,0.75)"/>
      <path d="M820.701,797.871 C820.524,798.556 820.274,798.139 820,797.724 C819.628,797.17 819.212,796.615 818.86,798.67 C818.453,800.268 817.638,803.463 816.413,803.463 C814.368,803.862 811.51,805.859 810.284,801.865 C809.877,802.663 809.673,803.463 809.058,803.862 C807.316,804.807 805.62,804.141 803.928,803.473 C802.049,802.732 800.169,801.991 798.235,803.463 C793.743,807.456 787.818,806.657 782.305,805.459 C781.897,805.459 781.69,804.26 781.282,804.26 C779.575,803.97 777.813,804.102 776.066,804.235 C773.008,804.466 769.997,804.697 767.396,802.663 C765.76,801.465 763.719,799.868 762.697,801.066 C759.635,805.06 757.795,813.846 754.121,815.044 C753.914,815.044 753.71,816.242 753.507,816.242 C746.767,816.642 740.028,817.042 733.899,809.453 C732.881,808.254 731.656,807.856 730.837,807.456 C729.588,807.025 728.311,807.059 727.047,807.094 C724.799,807.156 722.586,807.217 720.624,804.661 C718.991,802.264 718.177,797.471 716.133,797.072 C713.07,797.072 710.004,798.269 706.738,797.471 C706.331,797.471 706.124,796.273 705.716,795.874 C704.491,794.676 703.061,794.276 701.836,793.078 C699.999,791.081 698.366,794.276 696.322,795.474 C692.238,797.471 692.441,788.285 691.627,783.493 C688.972,790.283 685.091,793.479 681.007,795.075 C674.079,798.009 667.348,797.626 660.667,797.244 C655.525,796.95 650.415,796.655 645.266,797.871 C644.651,797.871 644.04,793.877 644.244,791.48 C643.832,791.48 643.425,791.081 643.221,791.48 C640.974,798.269 637.301,803.463 633.212,799.868 L633.212,798.67 C632.261,798.403 631.286,798.492 630.311,798.581 C628.357,798.758 626.406,798.935 624.636,796.273 C624.025,795.075 623.003,796.673 622.185,797.471 C621.163,798.67 619.734,798.269 618.508,797.471 C617.486,796.722 616.546,796.754 615.583,796.785 C615.007,796.803 614.424,796.822 613.813,796.673 C613.198,796.273 612.587,795.075 612.18,795.075 C608.91,793.877 605.644,793.877 602.374,795.075 C602.19,795.147 602.006,795.213 601.822,795.271 C601.912,797.465 602.026,799.662 602.171,801.865 C602.374,805.06 602.374,808.254 602.171,811.05 C601.352,816.642 602.578,821.035 602.989,825.429 C604.215,838.609 602.171,852.188 604.007,864.169 C606.051,877.749 601.56,891.726 599.719,903.709 C598.697,911.297 600.334,920.882 600.334,929.269 C600.741,973.601 599.923,1018.333 599.516,1062.665 C599.516,1066.26 600.538,1070.254 601.56,1074.248 C602.989,1080.238 602.578,1088.226 601.763,1095.016 C599.312,1118.184 600.741,1140.943 600.741,1164.114 C604.215,1172.096 602.171,1181.684 602.785,1190.869 L603.396,1190.869 C604.007,1194.46 605.233,1198.06 605.644,1201.255 C606.458,1208.842 606.051,1217.631 605.44,1225.217 C604.9,1231.67 604.641,1238.13 604.536,1244.591 C606.838,1248.304 608.965,1252.337 610.766,1256.804 C612.877,1256.728 614.984,1256.56 617.079,1256.37 C617.49,1256.37 617.897,1253.973 618.508,1253.973 C621.981,1253.578 625.044,1250.382 628.11,1249.575 C638.73,1246.782 649.35,1250.777 659.97,1251.576 C662.214,1241.593 668.546,1246.387 672.63,1247.186 C673.652,1247.186 675.489,1247.186 676.918,1247.581 C677.126,1247.581 677.126,1246.387 677.329,1246.387 C679.166,1245.983 679.37,1250.382 680.595,1251.181 C681.339,1251.538 682.123,1251.493 682.91,1251.439 C683.857,1251.379 684.809,1251.318 685.702,1251.972 C688.764,1253.973 692.034,1253.973 694.893,1251.181 C696.526,1249.179 698.977,1251.972 701.021,1252.375 C712.456,1254.772 723.69,1253.973 735.125,1253.578 C735.329,1253.578 735.536,1254.772 735.74,1254.772 C736.351,1254.369 736.966,1255.967 737.78,1256.37 C741.254,1257.565 744.931,1255.967 747.993,1254.369 C752.034,1251.888 756.334,1252.725 760.712,1253.555 C764.08,1254.202 767.494,1254.841 770.866,1253.973 C775.769,1252.771 780.875,1252.771 785.982,1253.174 C788.022,1253.578 789.044,1258.767 791.292,1256.37 C792.517,1255.168 794.15,1253.174 793.947,1249.575 C798.849,1249.978 803.952,1249.575 808.448,1252.375 C809.47,1253.174 811.103,1253.973 812.328,1253.174 C813.55,1252.771 814.368,1250.382 815.391,1249.978 C818.86,1248.784 822.13,1248.38 825.4,1249.978 C826.755,1250.777 828.109,1252.451 829.527,1253.486 C829.735,1250.602 830.036,1248.084 830.972,1247.049 C832.613,1245.641 834.25,1243.777 835.734,1241.608 C835.765,1240.801 835.793,1239.995 835.812,1239.196 C836.02,1233.207 836.223,1226.016 835.812,1219.625 C835.405,1216.832 835.609,1212.038 835.812,1208.439 C836.02,1204.847 836.223,1202.054 835.609,1198.06 C835.201,1194.46 837.445,1191.668 837.856,1188.076 C838.467,1183.678 837.242,1178.488 838.467,1174.897 C839.082,1172.5 839.082,1169.304 838.878,1166.503 C838.675,1164.114 838.06,1161.717 837.653,1159.32 C836.834,1154.526 838.06,1149.732 838.264,1144.938 C838.467,1142.542 838.264,1140.548 837.856,1137.352 C836.631,1124.172 836.223,1110.991 837.653,1097.811 C838.467,1089.424 839.489,1081.836 838.675,1073.05 C837.856,1065.062 838.878,1057.074 837.242,1049.086 C835.812,1042.297 837.856,1034.309 837.242,1026.721 C836.834,1021.129 837.653,1015.937 837.445,1010.346 C837.856,1010.745 838.675,1010.346 838.264,1008.747 C837.242,1005.153 837.653,999.563 837.445,996.766 C837.242,991.574 837.856,985.983 837.445,980.391 C837.242,979.593 836.631,979.192 836.631,978.395 C836.427,966.014 835.609,954.031 836.223,941.65 C836.223,941.251 836.834,940.852 837.038,940.452 C837.242,938.456 836.427,937.257 835.609,934.862 C834.998,933.263 835.405,930.467 835.405,928.07 C836.631,928.471 837.445,926.074 837.242,924.078 C836.834,921.283 834.586,922.08 833.365,920.084 C833.157,919.284 833.365,917.687 833.772,916.888 C833.909,916.755 834.066,916.755 834.242,916.755 C834.586,916.755 834.998,916.755 835.405,915.691 C834.179,916.888 834.383,913.693 833.365,912.896 C833.976,911.697 833.568,909.699 834.586,908.102 C834.998,907.304 834.586,904.907 834.586,903.309 C833.976,895.721 836.02,888.532 835.201,880.944 C834.794,877.749 834.794,874.952 834.794,871.758 C834.794,869.761 834.179,868.163 833.976,866.566 C833.568,862.971 833.365,858.577 833.976,855.782 C834.794,852.188 833.772,848.194 833.568,844.999 C832.394,830.448 834.594,816.633 834.238,802.494 C833.643,802.261 833.075,801.931 832.546,801.465 C831.003,800.223 829.179,800.243 827.318,800.262 C825,800.287 822.631,800.311 820.701,797.871" fill="#FFFFFF"/>
    </g>
  </g>
</svg>
