<?xml version="1.0" encoding="UTF-8"?>
<!DOCTYPE svg PUBLIC "-//W3C//DTD SVG 1.1//EN" "http://www.w3.org/Graphics/SVG/1.1/DTD/svg11.dtd">
<svg version="1.1" xmlns="http://www.w3.org/2000/svg" xmlns:xlink="http://www.w3.org/1999/xlink" x="0" y="0" width="643" height="467.65" viewBox="0, 0, 643, 467.65">
  <defs>
    <clipPath id="Clip_1">
      <path d="M713,292 L1358,292 L1358,763.65 L713,763.65 z M833.289,300 L831.307,300 C827.225,301.331 824.667,307.327 821.092,307.327 C787.406,310.658 754.219,309.325 721.041,309.325 C721.041,311.991 720.533,315.321 721.549,317.319 C724.616,323.315 731.248,328.643 728.698,335.305 C726.657,341.3 723.591,347.296 723.083,351.959 C720.533,383.934 719,416.575 729.207,446.553 C731.248,453.88 731.756,461.874 728.698,467.202 C726.149,471.865 726.657,479.194 727.674,483.858 C729.715,493.182 729.207,502.509 723.591,509.837 C720.016,513.834 721.55,521.827 722.574,527.823 C727.674,577.783 721.55,627.08 726.149,677.04 C726.657,681.7 732.781,686.37 733.289,690.36 C734.314,698.36 732.781,708.35 724.099,712.35 C723.591,713.01 724.616,717.01 724.099,719.67 C723.591,721.01 722.574,721.01 722.058,722.34 C721.55,725.67 723.083,729 721.549,731 C720.643,732.71 719.796,734.39 719,736.06 L719,753.88 C722.193,754.14 725.319,754.31 728.19,754.31 C734.822,753.65 742.988,754.98 750.645,752.32 C752.178,752.32 753.203,748.32 754.736,748.32 C768.009,747.65 781.282,752.32 794.555,754.31 C797.562,754.94 800.577,755.38 803.593,755.65 L817.662,755.65 C822.829,755.21 828.046,754.31 833.349,752.98 C852.237,748.98 870.101,746.99 888.482,748.32 C897.155,748.98 906.854,750.98 915.536,747.65 C939.761,739.6 963.537,749.41 988.109,755.65 L1006.455,755.65 C1021.854,749.44 1038.744,736.44 1053.88,746.32 C1054.897,746.99 1055.922,745.65 1056.938,746.32 C1057.455,746.99 1057.455,748.32 1057.963,748.98 C1080.426,756.31 1101.865,744.99 1124.836,752.32 C1130.596,753.92 1136.347,755 1142.115,755.65 L1170.948,755.65 C1177.157,755.05 1183.391,754.13 1189.667,752.98 C1201.407,750.98 1212.13,746.99 1224.378,749.65 C1247.028,754.9 1268.898,755.02 1290.912,755.65 L1317.924,755.65 C1322.346,747.38 1331.925,751.11 1338.727,753.65 C1342.251,755.06 1345.91,754.98 1349.569,754.68 C1349.264,752.71 1348.9,750.74 1347.976,749.04 C1343.597,741.34 1351.382,731.72 1350.407,722.1 C1349.332,713.92 1349.603,706.13 1350.552,698.63 C1348.502,679.29 1349.095,660.474 1351.492,641.068 C1351.636,639.78 1351.805,638.446 1352,637.081 L1352,605.754 C1350.873,603.398 1349.23,601.356 1346.901,599.768 C1347.748,578.669 1345.419,555.72 1352,535.164 L1352,506.961 C1350.441,504.73 1349.035,502.404 1348.426,499.844 C1344.402,479.995 1352.923,457.587 1346.494,439.346 C1344.14,438.125 1341.632,437.419 1338.727,437.893 C1338.219,438.559 1337.194,436.56 1336.686,435.894 C1332.095,435.229 1326.987,436.56 1322.396,435.894 C1320.355,435.229 1322.396,431.23 1320.355,430.565 C1309.632,429.233 1304.016,417.908 1300.441,406.584 C1297.892,397.257 1305.032,387.265 1300.95,379.271 C1300.441,377.939 1294.826,376.607 1294.317,373.276 C1292.276,361.951 1296.867,344.632 1284.619,339.968 C1283.086,339.302 1283.086,337.304 1283.594,335.971 C1285.635,332.641 1289.21,328.643 1287.168,325.979 C1281.544,318.637 1284.102,311.296 1288.515,306.534 C1267.975,308.204 1247.706,306.121 1227.445,306.66 C1224.107,303.76 1220.601,301.592 1216.975,300 L1164.002,300 C1162.334,300.244 1160.674,300.472 1159.039,300.665 C1143.216,303.33 1127.902,313.322 1111.055,308.658 C1098.29,304.663 1086.042,305.995 1073.277,305.328 C1073.277,309.991 1069.195,311.324 1068.17,311.324 C1054.389,310.658 1039.583,311.324 1026.31,309.325 C964.545,301.331 903.288,309.991 841.514,303.33 C839.024,302.787 836.186,300.477 833.289,300 z"/>
    </clipPath>
    <filter id="Shadow_2">
      <feGaussianBlur in="SourceAlpha" stdDeviation="2.5"/>
      <feOffset dx="0" dy="2" result="offsetblur"/>
      <feFlood flood-color="#000000"/>
      <feComposite in2="offsetblur" operator="in"/>
    </filter>
    <clipPath id="Clip_3">
      <path d="M719.183,292.012 L1356.167,292.012 L1356.167,759.954 L719.183,759.954 z M1185.12,300.041 C1181.963,300.465 1178.891,300.677 1176.064,302.272 C1165.84,307.401 1153.186,309.966 1142.479,306.12 C1140.125,305.304 1137.753,304.592 1135.347,303.969 C1127.741,306.058 1119.991,307.205 1111.902,304.962 C1099.137,300.967 1086.889,302.299 1074.124,301.632 C1074.124,306.295 1070.042,307.628 1069.017,307.628 C1059.03,307.145 1048.502,307.351 1038.405,306.746 C1017.687,309.635 995.351,310.209 975.539,303.555 C952.661,303.058 931.57,302.281 908.7,302.361 C905.786,304.321 902.593,306.613 899.747,307.286 C886.5,310.636 872.312,305.052 860.021,309.519 C857.184,310.636 854.346,315.102 850.56,313.986 C843.936,311.752 836.372,307.286 831.638,310.636 C819.347,318.453 803.262,310.636 790.972,316.22 C790.972,316.22 790.023,320.686 787.186,319.569 C781.511,316.22 773.938,316.22 770.16,311.752 C769.754,311.276 769.432,310.824 769.178,310.389 C758.929,310.16 748.748,309.252 738.719,310.684 C738.626,317.229 737.889,323.527 736.127,329.203 C729.308,351.003 726.395,376.01 736.127,398.452 C740.506,409.352 739.049,425.381 742.937,438.848 C745.368,447.824 739.532,459.365 736.61,468.984 C735.153,472.831 737.101,477.96 735.635,481.807 C732.722,491.426 732.231,501.044 734.661,510.662 C737.101,523.486 728.826,531.18 726.394,542.081 C725.844,544.829 725.454,547.623 725.183,550.452 C725.59,561.451 725.641,572.427 725.564,583.398 C725.675,585.227 725.793,587.058 725.903,588.888 C725.903,592.094 729.8,594.018 730.282,595.941 C732.722,604.276 731.748,614.537 728.826,623.513 C728.343,624.794 728.343,627.359 728.826,628.642 C730.282,631.206 732.722,630.565 731.748,634.413 L733.205,634.413 C733.696,644.671 730.774,656.212 733.696,665.194 C737.584,677.374 743.911,688.914 741.963,702.384 C741.48,704.944 740.989,708.154 740.506,710.074 C737.584,717.774 737.101,729.314 740.015,737.004 C742.615,743.354 748.036,745.614 753.914,746.044 C754.431,745.274 754.965,744.624 755.583,744.624 C768.856,743.954 782.129,748.624 795.402,750.614 C798.409,751.244 801.424,751.684 804.44,751.954 L818.509,751.954 C823.676,751.514 828.893,750.614 834.196,749.284 C853.084,745.284 870.948,743.294 889.328,744.624 C898.002,745.284 907.701,747.284 916.383,743.954 C931.138,739.044 945.741,740.774 960.445,744.284 C961.58,744.024 962.723,743.744 963.884,743.414 C972.642,740.214 981.4,740.214 990.159,742.134 C990.641,742.134 992.59,742.774 993.564,743.414 C994.055,744.054 993.564,745.344 994.055,745.984 C1003.787,747.904 1013.028,745.344 1020.821,740.214 C1027.148,736.364 1033.958,737.004 1040.768,738.934 L1041.438,739.074 C1043.801,738.964 1046.139,739.174 1048.459,739.804 C1053.864,739.874 1059.352,739.134 1064.621,739.574 C1066.078,740.214 1067.052,742.134 1068.509,742.134 C1082.137,742.774 1095.766,739.574 1109.386,743.414 C1122.041,747.264 1134.695,749.824 1147.833,745.344 C1158.539,740.854 1169.737,742.774 1181.417,745.984 C1193.581,748.544 1205.744,745.344 1217.916,740.854 C1219.864,740.214 1222.778,736.364 1226.191,738.934 C1233.73,743.444 1241.395,747.094 1249.171,749.854 C1263.469,751.344 1277.589,751.544 1291.759,751.954 L1318.771,751.954 C1323.193,743.684 1332.772,747.414 1339.574,749.954 C1340.142,750.184 1340.718,750.364 1341.293,750.524 C1341.861,750.124 1342.429,749.684 1342.988,749.184 C1345.419,747.264 1342.988,738.284 1340.548,733.154 C1340.065,731.234 1341.039,729.314 1340.548,727.384 C1337.143,718.404 1337.143,708.794 1337.634,699.174 C1338.117,696.604 1339.574,694.684 1340.065,692.124 C1342.014,671.604 1345.419,653.649 1349.798,634.413 C1351.746,625.436 1345.419,619.665 1343.953,611.33 C1343.47,605.559 1343.47,599.788 1347.849,596.582 C1347.917,596.492 1347.968,596.383 1348.027,596.28 C1347.934,596.211 1347.841,596.138 1347.748,596.072 C1347.816,594.263 1347.866,592.439 1347.9,590.607 C1338.702,572.855 1341.522,552.68 1341.522,533.745 C1341.039,528.616 1346.875,524.127 1345.901,518.356 C1344.927,515.149 1343.953,510.019 1342.496,507.456 C1336.66,498.478 1338.6,486.937 1335.686,477.96 C1333.247,471.549 1325.463,470.907 1319.626,467.702 C1316.704,466.42 1314.756,461.289 1311.842,458.084 C1310.868,457.442 1309.403,458.084 1309.403,458.084 C1307.946,454.237 1305.507,452.954 1303.567,451.671 C1301.128,449.107 1304.05,440.771 1302.102,438.207 C1300.162,435.642 1294.317,436.283 1293.835,432.436 C1292.861,424.1 1291.886,416.405 1289.455,409.352 C1286.533,401.658 1294.317,394.605 1292.369,389.475 C1288.964,381.78 1280.206,377.934 1276.31,368.957 C1272.422,358.697 1274.361,345.874 1273.396,334.331 C1272.905,327.28 1277.284,318.303 1273.879,315.096 C1262.689,305.478 1248.087,312.531 1234.949,306.761 C1228.131,304.196 1220.347,307.401 1213.045,305.478 C1209.157,304.196 1205.261,302.272 1201.856,301.631 C1196.309,300.799 1190.759,299.83 1185.12,300.041 z"/>
    </clipPath>
    <filter id="Shadow_4">
      <feGaussianBlur in="SourceAlpha" stdDeviation="2.5"/>
      <feOffset dx="0" dy="2" result="offsetblur"/>
      <feFlood flood-color="#000000"/>
      <feComposite in2="offsetblur" operator="in"/>
    </filter>
  </defs>
  <g id="message-boxes" transform="translate(-714, -295)">
    <g>
      <path d="M833.289,300 C836.186,300.477 839.024,302.787 841.514,303.33 C903.288,309.991 964.545,301.331 1026.31,309.325 C1039.583,311.324 1054.389,310.658 1068.17,311.324 C1069.195,311.324 1073.277,309.991 1073.277,305.328 C1086.042,305.995 1098.29,304.663 1111.055,308.658 C1127.902,313.322 1143.216,303.33 1159.039,300.665 C1160.674,300.472 1162.334,300.244 1164.002,300 L1216.975,300 C1220.601,301.592 1224.107,303.76 1227.445,306.66 C1247.706,306.121 1267.975,308.204 1288.515,306.534 C1284.102,311.296 1281.544,318.637 1287.168,325.979 C1289.21,328.643 1285.635,332.641 1283.594,335.971 C1283.086,337.304 1283.086,339.302 1284.619,339.968 C1296.867,344.632 1292.276,361.951 1294.317,373.276 C1294.826,376.607 1300.441,377.939 1300.95,379.271 C1305.032,387.265 1297.892,397.257 1300.441,406.584 C1304.016,417.908 1309.632,429.233 1320.355,430.565 C1322.396,431.23 1320.355,435.229 1322.396,435.894 C1326.987,436.56 1332.095,435.229 1336.686,435.894 C1337.194,436.56 1338.219,438.559 1338.727,437.893 C1341.632,437.419 1344.14,438.125 1346.494,439.346 C1352.923,457.587 1344.402,479.995 1348.426,499.844 C1349.035,502.404 1350.441,504.73 1352,506.961 L1352,535.164 C1345.419,555.72 1347.748,578.669 1346.901,599.768 C1349.23,601.356 1350.873,603.398 1352,605.754 L1352,637.081 C1351.805,638.446 1351.636,639.78 1351.492,641.068 C1349.095,660.474 1348.502,679.29 1350.552,698.63 C1349.603,706.13 1349.332,713.92 1350.407,722.1 C1351.382,731.72 1343.597,741.34 1347.976,749.04 C1348.9,750.74 1349.264,752.71 1349.569,754.68 C1345.91,754.98 1342.251,755.06 1338.727,753.65 C1331.925,751.11 1322.346,747.38 1317.924,755.65 L1290.912,755.65 C1268.898,755.02 1247.028,754.9 1224.378,749.65 C1212.13,746.99 1201.407,750.98 1189.667,752.98 C1183.391,754.13 1177.157,755.05 1170.948,755.65 L1142.115,755.65 C1136.347,755 1130.596,753.92 1124.836,752.32 C1101.865,744.99 1080.426,756.31 1057.963,748.98 C1057.455,748.32 1057.455,746.99 1056.938,746.32 C1055.922,745.65 1054.897,746.99 1053.88,746.32 C1038.744,736.44 1021.854,749.44 1006.455,755.65 L988.109,755.65 C963.537,749.41 939.761,739.6 915.536,747.65 C906.854,750.98 897.155,748.98 888.482,748.32 C870.101,746.99 852.237,748.98 833.349,752.98 C828.046,754.31 822.829,755.21 817.662,755.65 L803.593,755.65 C800.577,755.38 797.562,754.94 794.555,754.31 C781.282,752.32 768.009,747.65 754.736,748.32 C753.203,748.32 752.178,752.32 750.645,752.32 C742.988,754.98 734.822,753.65 728.19,754.31 C725.319,754.31 722.193,754.14 719,753.88 L719,736.06 C719.796,734.39 720.643,732.71 721.549,731 C723.083,729 721.55,725.67 722.058,722.34 C722.574,721.01 723.591,721.01 724.099,719.67 C724.616,717.01 723.591,713.01 724.099,712.35 C732.781,708.35 734.314,698.36 733.289,690.36 C732.781,686.37 726.657,681.7 726.149,677.04 C721.55,627.08 727.674,577.783 722.574,527.823 C721.55,521.827 720.016,513.834 723.591,509.837 C729.207,502.509 729.715,493.182 727.674,483.858 C726.657,479.194 726.149,471.865 728.698,467.202 C731.756,461.874 731.248,453.88 729.207,446.553 C719,416.575 720.533,383.934 723.083,351.959 C723.591,347.296 726.657,341.3 728.698,335.305 C731.248,328.643 724.616,323.315 721.549,317.319 C720.533,315.321 721.041,311.991 721.041,309.325 C754.219,309.325 787.406,310.658 821.092,307.327 C824.667,307.327 827.225,301.331 831.307,300 L833.289,300 z" clip-path="url(#Clip_1)" filter="url(#Shadow_2)" fill="rgba(0,0,0,0.75)"/>
      <path d="M1351.492,641.068 C1351.636,639.78 1351.805,638.446 1352,637.081 L1352,605.754 C1350.873,603.398 1349.23,601.356 1346.901,599.768 C1347.748,578.669 1345.419,555.72 1352,535.164 L1352,506.961 C1350.441,504.73 1349.035,502.404 1348.426,499.844 C1344.402,479.995 1352.923,457.587 1346.494,439.346 C1344.14,438.125 1341.632,437.419 1338.727,437.893 C1338.219,438.559 1337.194,436.56 1336.686,435.894 C1332.095,435.229 1326.987,436.56 1322.396,435.894 C1320.355,435.229 1322.396,431.23 1320.355,430.565 C1309.632,429.233 1304.016,417.908 1300.441,406.584 C1297.892,397.257 1305.032,387.265 1300.95,379.271 C1300.441,377.939 1294.826,376.607 1294.317,373.276 C1292.276,361.951 1296.867,344.632 1284.619,339.968 C1283.086,339.302 1283.086,337.304 1283.594,335.971 C1285.635,332.641 1289.21,328.643 1287.169,325.979 C1281.544,318.637 1284.102,311.296 1288.515,306.534 C1267.975,308.204 1247.706,306.121 1227.445,306.66 C1224.107,303.76 1220.601,301.592 1216.975,300 L1164.002,300 C1162.334,300.244 1160.674,300.472 1159.039,300.665 C1143.216,303.33 1127.902,313.322 1111.055,308.658 C1098.29,304.663 1086.042,305.995 1073.277,305.328 C1073.277,309.991 1069.195,311.324 1068.17,311.324 C1054.389,310.658 1039.583,311.324 1026.31,309.325 C964.545,301.331 903.288,309.991 841.514,303.33 C839.024,302.787 836.186,300.477 833.289,300 L831.307,300 C827.225,301.331 824.667,307.327 821.092,307.327 C787.406,310.658 754.219,309.325 721.041,309.325 C721.041,311.991 720.533,315.321 721.55,317.319 C724.616,323.315 731.248,328.643 728.698,335.305 C726.657,341.3 723.591,347.296 723.083,351.959 C720.533,383.934 719,416.575 729.207,446.553 C731.248,453.88 731.756,461.874 728.698,467.202 C726.149,471.865 726.657,479.194 727.674,483.858 C729.715,493.182 729.207,502.509 723.591,509.837 C720.016,513.834 721.55,521.827 722.574,527.823 C727.674,577.783 721.55,627.08 726.149,677.04 C726.657,681.7 732.781,686.37 733.289,690.36 C734.314,698.36 732.781,708.35 724.099,712.35 C723.591,713.01 724.616,717.01 724.099,719.67 C723.591,721.01 722.574,721.01 722.058,722.34 C721.55,725.67 723.083,729 721.55,731 C720.643,732.71 719.796,734.39 719,736.06 L719,753.88 C722.193,754.14 725.319,754.31 728.19,754.31 C734.822,753.65 742.988,754.98 750.645,752.32 C752.178,752.32 753.203,748.32 754.736,748.32 C768.009,747.65 781.282,752.32 794.555,754.31 C797.562,754.94 800.577,755.38 803.593,755.65 L817.662,755.65 C822.829,755.21 828.046,754.31 833.349,752.98 C852.237,748.98 870.101,746.99 888.482,748.32 C897.155,748.98 906.854,750.98 915.536,747.65 C939.761,739.6 963.537,749.41 988.109,755.65 L1006.455,755.65 C1021.854,749.44 1038.744,736.44 1053.88,746.32 C1054.897,746.99 1055.922,745.65 1056.938,746.32 C1057.455,746.99 1057.455,748.32 1057.963,748.98 C1080.426,756.31 1101.865,744.99 1124.836,752.32 C1130.596,753.92 1136.347,755 1142.115,755.65 L1170.948,755.65 C1177.157,755.05 1183.391,754.13 1189.667,752.98 C1201.407,750.98 1212.13,746.99 1224.378,749.65 C1247.028,754.9 1268.898,755.02 1290.912,755.65 L1317.924,755.65 C1322.346,747.38 1331.925,751.11 1338.727,753.65 C1342.251,755.06 1345.91,754.98 1349.569,754.68 C1349.264,752.71 1348.9,750.74 1347.977,749.04 C1343.597,741.34 1351.382,731.72 1350.408,722.1 C1349.332,713.92 1349.603,706.13 1350.552,698.63 C1348.502,679.29 1349.095,660.474 1351.492,641.068" fill="#FFFFFF"/>
    </g>
    <g>
      <path d="M1185.12,300.041 C1190.759,299.83 1196.309,300.799 1201.856,301.631 C1205.261,302.272 1209.157,304.196 1213.045,305.478 C1220.347,307.401 1228.131,304.196 1234.949,306.761 C1248.087,312.531 1262.689,305.478 1273.879,315.096 C1277.284,318.303 1272.905,327.28 1273.396,334.331 C1274.361,345.874 1272.422,358.697 1276.31,368.957 C1280.206,377.934 1288.964,381.78 1292.369,389.475 C1294.317,394.605 1286.533,401.658 1289.455,409.352 C1291.886,416.405 1292.861,424.1 1293.835,432.436 C1294.317,436.283 1300.162,435.642 1302.102,438.207 C1304.05,440.771 1301.128,449.107 1303.567,451.671 C1305.507,452.954 1307.946,454.237 1309.403,458.084 C1309.403,458.084 1310.868,457.442 1311.842,458.084 C1314.756,461.289 1316.704,466.42 1319.626,467.702 C1325.463,470.907 1333.247,471.549 1335.686,477.96 C1338.6,486.937 1336.66,498.478 1342.496,507.456 C1343.953,510.019 1344.927,515.149 1345.901,518.356 C1346.875,524.127 1341.039,528.616 1341.522,533.745 C1341.522,552.68 1338.702,572.855 1347.9,590.607 C1347.866,592.439 1347.816,594.263 1347.748,596.072 C1347.841,596.138 1347.934,596.211 1348.027,596.28 C1347.968,596.383 1347.917,596.492 1347.849,596.582 C1343.47,599.788 1343.47,605.559 1343.953,611.33 C1345.419,619.665 1351.746,625.436 1349.798,634.413 C1345.419,653.649 1342.014,671.604 1340.065,692.124 C1339.574,694.684 1338.117,696.604 1337.634,699.174 C1337.143,708.794 1337.143,718.404 1340.548,727.384 C1341.039,729.314 1340.065,731.234 1340.548,733.154 C1342.988,738.284 1345.419,747.264 1342.988,749.184 C1342.429,749.684 1341.861,750.124 1341.293,750.524 C1340.718,750.364 1340.142,750.184 1339.574,749.954 C1332.772,747.414 1323.193,743.684 1318.771,751.954 L1291.759,751.954 C1277.589,751.544 1263.469,751.344 1249.171,749.854 C1241.395,747.094 1233.73,743.444 1226.191,738.934 C1222.778,736.364 1219.864,740.214 1217.916,740.854 C1205.744,745.344 1193.581,748.544 1181.417,745.984 C1169.737,742.774 1158.539,740.854 1147.833,745.344 C1134.695,749.824 1122.041,747.264 1109.386,743.414 C1095.766,739.574 1082.137,742.774 1068.509,742.134 C1067.052,742.134 1066.078,740.214 1064.621,739.574 C1059.352,739.134 1053.864,739.874 1048.459,739.804 C1046.139,739.174 1043.801,738.964 1041.438,739.074 L1040.768,738.934 C1033.958,737.004 1027.148,736.364 1020.821,740.214 C1013.028,745.344 1003.787,747.904 994.055,745.984 C993.564,745.344 994.055,744.054 993.564,743.414 C992.59,742.774 990.641,742.134 990.159,742.134 C981.4,740.214 972.642,740.214 963.884,743.414 C962.723,743.744 961.58,744.024 960.445,744.284 C945.741,740.774 931.138,739.044 916.383,743.954 C907.701,747.284 898.002,745.284 889.328,744.624 C870.948,743.294 853.084,745.284 834.196,749.284 C828.893,750.614 823.676,751.514 818.509,751.954 L804.44,751.954 C801.424,751.684 798.409,751.244 795.402,750.614 C782.129,748.624 768.856,743.954 755.583,744.624 C754.965,744.624 754.431,745.274 753.914,746.044 C748.036,745.614 742.615,743.354 740.015,737.004 C737.101,729.314 737.584,717.774 740.506,710.074 C740.989,708.154 741.48,704.944 741.963,702.384 C743.911,688.914 737.584,677.374 733.696,665.194 C730.774,656.212 733.696,644.671 733.205,634.413 L731.748,634.413 C732.722,630.565 730.282,631.206 728.826,628.642 C728.343,627.359 728.343,624.794 728.826,623.513 C731.748,614.537 732.722,604.276 730.282,595.941 C729.8,594.018 725.903,592.094 725.903,588.888 C725.793,587.058 725.675,585.227 725.564,583.398 C725.641,572.427 725.59,561.451 725.183,550.452 C725.454,547.623 725.844,544.829 726.394,542.081 C728.826,531.18 737.101,523.486 734.661,510.662 C732.231,501.044 732.722,491.426 735.635,481.807 C737.101,477.96 735.153,472.831 736.61,468.984 C739.532,459.365 745.368,447.824 742.937,438.848 C739.049,425.381 740.506,409.352 736.127,398.452 C726.395,376.01 729.308,351.003 736.127,329.203 C737.889,323.527 738.626,317.229 738.719,310.684 C748.748,309.252 758.929,310.16 769.178,310.389 C769.432,310.824 769.754,311.276 770.16,311.752 C773.938,316.22 781.511,316.22 787.186,319.569 C790.023,320.686 790.972,316.22 790.972,316.22 C803.262,310.636 819.347,318.453 831.638,310.636 C836.372,307.286 843.936,311.752 850.56,313.986 C854.346,315.102 857.184,310.636 860.021,309.519 C872.312,305.052 886.5,310.636 899.747,307.286 C902.593,306.613 905.786,304.321 908.7,302.361 C931.57,302.281 952.661,303.058 975.539,303.555 C995.351,310.209 1017.687,309.635 1038.405,306.746 C1048.502,307.351 1059.03,307.145 1069.017,307.628 C1070.042,307.628 1074.124,306.295 1074.124,301.632 C1086.889,302.299 1099.137,300.967 1111.902,304.962 C1119.991,307.205 1127.741,306.058 1135.347,303.969 C1137.753,304.592 1140.125,305.304 1142.479,306.12 C1153.186,309.966 1165.84,307.401 1176.064,302.272 C1178.891,300.677 1181.963,300.465 1185.12,300.041 z" clip-path="url(#Clip_3)" filter="url(#Shadow_4)" fill="rgba(0,0,0,0.75)"/>
      <path d="M1340.065,692.124 C1342.014,671.604 1345.419,653.649 1349.798,634.413 C1351.746,625.436 1345.419,619.665 1343.953,611.33 C1343.47,605.559 1343.47,599.788 1347.849,596.582 C1347.917,596.492 1347.968,596.383 1348.027,596.28 C1347.934,596.211 1347.841,596.138 1347.748,596.072 C1347.816,594.263 1347.866,592.439 1347.9,590.607 C1338.702,572.855 1341.522,552.68 1341.522,533.745 C1341.039,528.616 1346.875,524.127 1345.901,518.356 C1344.927,515.149 1343.953,510.019 1342.496,507.456 C1336.66,498.478 1338.6,486.937 1335.686,477.96 C1333.247,471.549 1325.463,470.907 1319.627,467.702 C1316.704,466.42 1314.756,461.289 1311.842,458.084 C1310.868,457.442 1309.403,458.084 1309.403,458.084 C1307.946,454.237 1305.507,452.954 1303.567,451.671 C1301.128,449.107 1304.05,440.771 1302.102,438.207 C1300.162,435.642 1294.317,436.283 1293.835,432.436 C1292.861,424.1 1291.886,416.405 1289.455,409.352 C1286.533,401.658 1294.317,394.605 1292.369,389.475 C1288.964,381.78 1280.206,377.934 1276.31,368.957 C1272.422,358.697 1274.361,345.874 1273.396,334.331 C1272.905,327.28 1277.284,318.303 1273.879,315.096 C1262.689,305.478 1248.087,312.531 1234.949,306.761 C1228.131,304.196 1220.347,307.401 1213.045,305.478 C1209.157,304.196 1205.261,302.272 1201.856,301.631 C1193.098,300.349 1183.357,298.426 1176.064,302.272 C1165.84,307.401 1153.186,309.966 1142.479,306.12 C1140.125,305.304 1137.753,304.592 1135.347,303.969 C1127.741,306.058 1119.991,307.205 1111.902,304.962 C1099.137,300.967 1086.889,302.299 1074.124,301.632 C1074.124,306.295 1070.042,307.628 1069.017,307.628 C1059.03,307.145 1048.502,307.351 1038.405,306.746 C1017.687,309.635 995.351,310.209 975.539,303.555 C952.661,303.058 931.57,302.281 908.7,302.361 C905.786,304.321 902.593,306.613 899.747,307.286 C886.5,310.636 872.312,305.052 860.021,309.519 C857.184,310.636 854.346,315.102 850.56,313.986 C843.936,311.752 836.372,307.286 831.638,310.636 C819.347,318.453 803.262,310.636 790.972,316.22 C790.972,316.22 790.023,320.686 787.186,319.569 C781.511,316.22 773.938,316.22 770.16,311.752 C769.754,311.276 769.432,310.824 769.178,310.389 C758.929,310.16 748.748,309.252 738.719,310.684 C738.626,317.229 737.889,323.527 736.127,329.203 C729.308,351.003 726.395,376.01 736.127,398.452 C740.506,409.352 739.049,425.381 742.937,438.848 C745.368,447.824 739.532,459.365 736.61,468.984 C735.153,472.831 737.101,477.96 735.636,481.807 C732.722,491.426 732.231,501.044 734.661,510.662 C737.101,523.486 728.826,531.18 726.395,542.081 C725.844,544.829 725.454,547.623 725.183,550.452 C725.59,561.451 725.641,572.427 725.564,583.398 C725.675,585.227 725.793,587.058 725.903,588.888 C725.903,592.094 729.8,594.018 730.282,595.941 C732.722,604.276 731.748,614.537 728.826,623.513 C728.343,624.794 728.343,627.359 728.826,628.642 C730.282,631.206 732.722,630.565 731.748,634.413 C732.231,634.413 733.205,634.413 733.205,634.413 C733.696,644.671 730.774,656.212 733.696,665.194 C737.584,677.374 743.911,688.914 741.963,702.384 C741.48,704.944 740.989,708.154 740.506,710.074 C737.584,717.774 737.101,729.314 740.015,737.004 C742.615,743.354 748.036,745.614 753.914,746.044 C754.431,745.274 754.965,744.624 755.583,744.624 C768.856,743.954 782.129,748.624 795.402,750.614 C798.409,751.244 801.424,751.684 804.44,751.954 L818.509,751.954 C823.676,751.514 828.893,750.614 834.196,749.284 C853.084,745.284 870.948,743.294 889.329,744.624 C898.002,745.284 907.701,747.284 916.383,743.954 C931.138,739.044 945.741,740.774 960.445,744.284 C961.58,744.024 962.723,743.744 963.884,743.414 C972.642,740.214 981.4,740.214 990.159,742.134 C990.641,742.134 992.59,742.774 993.564,743.414 C994.055,744.054 993.564,745.344 994.055,745.984 C1003.787,747.904 1013.028,745.344 1020.821,740.214 C1027.148,736.364 1033.958,737.004 1040.768,738.934 C1040.989,738.984 1041.217,739.024 1041.438,739.074 C1043.801,738.964 1046.139,739.174 1048.459,739.804 C1053.864,739.874 1059.352,739.134 1064.621,739.574 C1066.078,740.214 1067.052,742.134 1068.509,742.134 C1082.137,742.774 1095.766,739.574 1109.386,743.414 C1122.041,747.264 1134.695,749.824 1147.833,745.344 C1158.539,740.854 1169.737,742.774 1181.417,745.984 C1193.581,748.544 1205.744,745.344 1217.916,740.854 C1219.864,740.214 1222.778,736.364 1226.191,738.934 C1233.73,743.444 1241.395,747.094 1249.171,749.854 C1263.469,751.344 1277.589,751.544 1291.759,751.954 L1318.771,751.954 C1323.193,743.684 1332.772,747.414 1339.574,749.954 C1340.142,750.184 1340.718,750.364 1341.294,750.524 C1341.861,750.124 1342.429,749.684 1342.988,749.184 C1345.419,747.264 1342.988,738.284 1340.548,733.154 C1340.065,731.234 1341.039,729.314 1340.548,727.384 C1337.143,718.404 1337.143,708.794 1337.634,699.174 C1338.117,696.604 1339.574,694.684 1340.065,692.124" fill="#147358"/>
    </g>
  </g>
</svg>
