<?xml version="1.0" encoding="UTF-8"?>
<!DOCTYPE svg PUBLIC "-//W3C//DTD SVG 1.1//EN" "http://www.w3.org/Graphics/SVG/1.1/DTD/svg11.dtd">
<svg version="1.1" xmlns="http://www.w3.org/2000/svg" xmlns:xlink="http://www.w3.org/1999/xlink" x="0" y="0" width="420" height="432" viewBox="0, 0, 420, 432">
  <g id="div-boxes" transform="translate(-511, -246.335)">
    <g>
      <path d="M842.881,639.371 C842.881,639.371 815.366,618.777 781.564,630.702 C747.759,642.626 740.495,678.335 740.495,678.335 C740.495,678.335 721.852,644.448 691.604,639.291 C661.356,634.134 632.883,659.422 632.883,659.422 C632.883,659.422 630.883,620.571 609.522,600.466 C588.161,580.358 548.882,587.699 548.882,587.699 C548.882,587.699 571.588,554.372 557.311,524.626 C543.033,494.884 511,482.386 511,482.386 C511,482.386 544.98,467.808 548.96,432.099 C552.939,396.389 529.388,371.699 529.388,371.699 C529.388,371.699 563.791,372.542 586.708,347.671 C609.624,322.8 599.118,285.299 599.118,285.299 C599.118,285.299 628.702,308.157 660.439,293.968 C692.175,279.78 701.506,246.335 701.506,246.335 C701.506,246.335 715.887,280.789 750.397,285.379 C784.906,289.969 809.119,265.248 809.119,265.248 C809.119,265.248 808.232,303.25 832.48,324.205 C856.725,345.16 893.118,336.97 893.118,336.97 C893.118,336.97 874.131,366.903 884.69,400.043 C895.249,433.183 931,442.284 931,442.284 C931,442.284 899.088,455.729 893.041,492.571 C886.996,529.413 912.612,552.971 912.612,552.971 C912.612,552.971 879.177,550.43 855.294,577 C831.411,603.567 842.881,639.371 842.881,639.371" fill="#E9AA60"/>
      <path d="M873.954,462.335 C873.954,549.223 805.474,619.659 721,619.659 C636.526,619.659 568.047,549.223 568.047,462.335 C568.047,375.448 636.526,305.012 721,305.012 C805.474,305.012 873.954,375.448 873.954,462.335" fill="#EFC26C"/>
      <path d="M858.946,455.028 C858.946,529.208 800.481,589.34 728.364,589.34 C656.245,589.34 597.781,529.208 597.781,455.028 C597.781,380.85 656.245,320.716 728.364,320.716 C800.481,320.716 858.946,380.85 858.946,455.028" fill="#F4DA83"/>
      <path d="M846.526,432.558 C846.526,484.403 805.667,526.43 755.263,526.43 C704.859,526.43 663.999,484.403 663.999,432.558 C663.999,380.714 704.859,338.687 755.263,338.687 C805.667,338.687 846.526,380.714 846.526,432.558" fill="#F7EA9C"/>
      <path d="M663.326,436.621 C663.326,441.521 659.465,445.493 654.7,445.493 C649.937,445.493 646.075,441.521 646.075,436.621 C646.075,431.721 649.937,427.749 654.7,427.749 C659.465,427.749 663.326,431.721 663.326,436.621" fill="#1D1212"/>
      <path d="M768.562,436.621 C768.562,441.521 764.7,445.493 759.936,445.493 C755.173,445.493 751.311,441.521 751.311,436.621 C751.311,431.721 755.173,427.749 759.936,427.749 C764.7,427.749 768.562,431.721 768.562,436.621" fill="#1D1212"/>
      <path d="M795.273,464.989 C795.273,470.49 785.431,474.948 773.293,474.948 C761.153,474.948 751.311,470.49 751.311,464.989 C751.311,459.488 761.153,455.028 773.293,455.028 C785.431,455.028 795.273,459.488 795.273,464.989" fill="#EE9F7A"/>
      <path d="M672.56,464.989 C672.56,470.49 662.72,474.948 650.58,474.948 C638.44,474.948 628.599,470.49 628.599,464.989 C628.599,459.488 638.44,455.028 650.58,455.028 C662.72,455.028 672.56,459.488 672.56,464.989" fill="#EE9F7A"/>
      <path d="M730.443,472.718 C730.44,478.17 728.299,483.088 724.825,486.662 C721.35,490.236 716.569,492.438 711.268,492.438 C705.965,492.438 701.185,490.236 697.71,486.662 C694.237,483.088 692.095,478.17 692.093,472.718 C692.093,471.564 691.186,470.632 690.066,470.632 C688.946,470.632 688.038,471.564 688.038,472.718 C688.039,485.914 698.437,496.608 711.268,496.61 C724.098,496.608 734.497,485.914 734.497,472.718 C734.497,471.564 733.59,470.632 732.469,470.632 C731.349,470.632 730.443,471.564 730.443,472.718" fill="#1D1212"/>
      <path d="M766.778,436.076 C766.778,438.02 765.247,439.594 763.356,439.594 C761.468,439.594 759.936,438.02 759.936,436.076 C759.936,434.133 761.468,432.558 763.356,432.558 C765.247,432.558 766.778,434.133 766.778,436.076" fill="#FFFFFE"/>
      <path d="M661.541,436.076 C661.541,438.02 660.01,439.594 658.121,439.594 C656.232,439.594 654.7,438.02 654.7,436.076 C654.7,434.133 656.232,432.558 658.121,432.558 C660.01,432.558 661.541,434.133 661.541,436.076" fill="#FFFFFE"/>
    </g>
  </g>
</svg>
