<?xml version="1.0" encoding="UTF-8"?>
<!DOCTYPE svg PUBLIC "-//W3C//DTD SVG 1.1//EN" "http://www.w3.org/Graphics/SVG/1.1/DTD/svg11.dtd">
<svg version="1.1" xmlns="http://www.w3.org/2000/svg" xmlns:xlink="http://www.w3.org/1999/xlink" x="0" y="0" width="2260" height="1440" viewBox="0, 0, 2260, 1440">
  <g id="Layer_1">
    <g>
      <path d="M1205.881,826.036 C1205.881,826.036 1178.366,805.443 1144.564,817.367 C1110.759,829.291 1103.495,865 1103.495,865 C1103.495,865 1084.852,831.113 1054.604,825.956 C1024.356,820.8 995.883,846.087 995.883,846.087 C995.883,846.087 993.883,807.236 972.522,787.131 C951.161,767.023 911.882,774.364 911.882,774.364 C911.882,774.364 934.588,741.037 920.311,711.291 C906.033,681.549 874,669.051 874,669.051 C874,669.051 907.98,654.473 911.96,618.764 C915.939,583.054 892.388,558.364 892.388,558.364 C892.388,558.364 926.791,559.207 949.708,534.337 C972.624,509.466 962.118,471.964 962.118,471.964 C962.118,471.964 991.702,494.822 1023.439,480.633 C1055.175,466.445 1064.506,433 1064.506,433 C1064.506,433 1078.887,467.454 1113.396,472.044 C1147.906,476.634 1172.119,451.913 1172.119,451.913 C1172.119,451.913 1171.232,489.915 1195.48,510.87 C1219.725,531.825 1256.118,523.635 1256.118,523.635 C1256.118,523.635 1237.131,553.568 1247.69,586.708 C1258.249,619.848 1294,628.95 1294,628.95 C1294,628.95 1262.088,642.394 1256.041,679.236 C1249.996,716.078 1275.612,739.636 1275.612,739.636 C1275.612,739.636 1242.177,737.095 1218.294,763.665 C1194.411,790.232 1205.881,826.036 1205.881,826.036" fill="#E9AA60"/>
      <path d="M1236.954,649 C1236.954,735.888 1168.474,806.324 1084,806.324 C999.526,806.324 931.047,735.888 931.047,649 C931.047,562.113 999.526,491.677 1084,491.677 C1168.474,491.677 1236.954,562.113 1236.954,649" fill="#EFC26C"/>
      <path d="M1221.946,641.693 C1221.946,715.873 1163.481,776.006 1091.365,776.006 C1019.245,776.006 960.781,715.873 960.781,641.693 C960.781,567.515 1019.245,507.381 1091.365,507.381 C1163.481,507.381 1221.946,567.515 1221.946,641.693" fill="#F4DA83"/>
      <path d="M1209.526,619.223 C1209.526,671.068 1168.667,713.095 1118.263,713.095 C1067.859,713.095 1026.999,671.068 1026.999,619.223 C1026.999,567.379 1067.859,525.352 1118.263,525.352 C1168.667,525.352 1209.526,567.379 1209.526,619.223" fill="#F7EA9C"/>
      <path d="M1026.326,623.286 C1026.326,628.186 1022.465,632.158 1017.7,632.158 C1012.937,632.158 1009.075,628.186 1009.075,623.286 C1009.075,618.386 1012.937,614.414 1017.7,614.414 C1022.465,614.414 1026.326,618.386 1026.326,623.286" fill="#1D1212"/>
      <path d="M1131.562,623.286 C1131.562,628.186 1127.7,632.158 1122.936,632.158 C1118.173,632.158 1114.311,628.186 1114.311,623.286 C1114.311,618.386 1118.173,614.414 1122.936,614.414 C1127.7,614.414 1131.562,618.386 1131.562,623.286" fill="#1D1212"/>
      <path d="M1158.273,651.654 C1158.273,657.155 1148.431,661.613 1136.293,661.613 C1124.153,661.613 1114.311,657.155 1114.311,651.654 C1114.311,646.153 1124.153,641.693 1136.293,641.693 C1148.431,641.693 1158.273,646.153 1158.273,651.654" fill="#EE9F7A"/>
      <path d="M1035.56,651.654 C1035.56,657.155 1025.72,661.613 1013.58,661.613 C1001.44,661.613 991.599,657.155 991.599,651.654 C991.599,646.153 1001.44,641.693 1013.58,641.693 C1025.72,641.693 1035.56,646.153 1035.56,651.654" fill="#EE9F7A"/>
      <path d="M1093.443,659.383 C1093.44,664.835 1091.299,669.753 1087.825,673.327 C1084.35,676.901 1079.569,679.103 1074.268,679.103 C1068.965,679.103 1064.186,676.901 1060.71,673.327 C1057.237,669.753 1055.095,664.835 1055.093,659.383 C1055.093,658.229 1054.186,657.297 1053.066,657.297 C1051.946,657.297 1051.038,658.229 1051.038,659.383 C1051.039,672.579 1061.438,683.273 1074.268,683.275 C1087.098,683.273 1097.497,672.579 1097.497,659.383 C1097.497,658.229 1096.59,657.297 1095.469,657.297 C1094.349,657.297 1093.443,658.229 1093.443,659.383" fill="#1D1212"/>
      <path d="M1129.778,622.741 C1129.778,624.685 1128.247,626.26 1126.356,626.26 C1124.468,626.26 1122.936,624.685 1122.936,622.741 C1122.936,620.798 1124.468,619.223 1126.356,619.223 C1128.247,619.223 1129.778,620.798 1129.778,622.741" fill="#FFFFFE"/>
      <path d="M1024.541,622.741 C1024.541,624.685 1023.01,626.26 1021.121,626.26 C1019.232,626.26 1017.7,624.685 1017.7,622.741 C1017.7,620.798 1019.232,619.223 1021.121,619.223 C1023.01,619.223 1024.541,620.798 1024.541,622.741" fill="#FFFFFE"/>
    </g>
  </g>
</svg>
